<?xml version="1.0" encoding="utf-8"?>
<!-- Generator: Adobe Illustrator 19.0.0, SVG Export Plug-In . SVG Version: 6.00 Build 0)  -->
<svg version="1.1" id="Capa_1" xmlns="http://www.w3.org/2000/svg" xmlns:xlink="http://www.w3.org/1999/xlink" x="0px" y="0px"
	 viewBox="-92 183.7 426.3 426.3" style="enable-background:new -92 183.7 426.3 426.3;" xml:space="preserve">
<style type="text/css">
	.st0{fill:#CCCCCC;}
	.st1{fill:#E6E6E6;}
	.st2{fill:#666666;}
	.st3{fill:#4D4D4D;}
	.st4{fill:#B3B3B3;}
	.st5{fill:#EF7954;}
	.st6{fill:#D3674A;}
	.st7{fill:#808080;}
	.st8{fill:#77C67F;}
</style>
<g>
	<rect x="-66.4" y="398.7" class="st0" width="339.8" height="200.7"/>
	<g>
		<polygon class="st0" points="49.7,340 4.4,340 6.8,293.3 8.7,258.3 11.3,209.3 12.7,183.7 41.4,183.7 42.8,209.3 45.4,258.3 
			47.2,293.3 		"/>
		<polygon class="st0" points="110.5,340 65.1,340 67.6,293.3 69.5,258.3 72.1,209.3 73.4,183.7 102.2,183.7 103.5,209.3 
			106.1,258.3 108,293.3 		"/>
	</g>
	<rect x="-33.8" y="340" class="st1" width="182.5" height="58.7"/>
	<g>
		<rect x="45.4" y="422.1" class="st2" width="14.4" height="39.3"/>
		<rect x="69.7" y="422.1" class="st2" width="14.4" height="39.3"/>
		<rect x="93.9" y="422.1" class="st2" width="14.4" height="39.3"/>
		<rect x="118.2" y="422.1" class="st2" width="14.4" height="39.3"/>
		<rect x="142.5" y="422.1" class="st2" width="14.4" height="39.3"/>
		<rect x="166.7" y="422.1" class="st2" width="14.5" height="39.3"/>
		<rect x="191" y="422.1" class="st2" width="14.5" height="39.3"/>
		<rect x="215.2" y="422.1" class="st2" width="14.5" height="39.3"/>
		<rect x="239.5" y="422.1" class="st2" width="14.5" height="39.3"/>
	</g>
	<rect x="136.9" y="478.2" class="st1" width="166.5" height="121.2"/>
	<rect x="230.3" y="529.2" class="st2" width="52.7" height="70.2"/>
	<rect x="230.3" y="529.2" class="st3" width="41.1" height="70.2"/>
	<rect x="45.4" y="478.2" class="st4" width="91.5" height="121.2"/>
	<polygon class="st5" points="103.5,209.3 72.1,209.3 73.4,183.7 102.2,183.7 	"/>
	<polygon class="st5" points="108,293.3 67.6,293.3 69.5,258.3 106.1,258.3 	"/>
	<polygon class="st4" points="24.7,183.7 24.7,340 4.4,340 12.7,183.7 	"/>
	<polygon class="st5" points="42.8,209.3 11.3,209.3 12.7,183.7 41.4,183.7 	"/>
	<polygon class="st5" points="47.2,293.3 6.8,293.3 8.7,258.3 45.4,258.3 	"/>
	<polygon class="st6" points="24.7,183.7 24.7,209.3 11.3,209.3 12.7,183.7 	"/>
	<polygon class="st6" points="24.7,258.3 24.7,293.3 6.8,293.3 8.7,258.3 	"/>
	<g>
		<polygon class="st4" points="85.4,183.7 85.4,340 65.1,340 73.4,183.7 		"/>
		<polygon class="st6" points="85.4,183.7 85.4,209.3 72.1,209.3 73.4,183.7 		"/>
		<polygon class="st6" points="85.4,258.3 85.4,293.3 67.6,293.3 69.5,258.3 		"/>
	</g>
	<g>
		<rect x="-20.1" y="359.3" class="st2" width="14" height="39.3"/>
		<rect x="3.4" y="359.3" class="st2" width="14" height="39.3"/>
		<rect x="26.9" y="359.3" class="st2" width="14" height="39.3"/>
		<rect x="50.4" y="359.3" class="st2" width="14" height="39.3"/>
		<rect x="73.9" y="359.3" class="st2" width="14" height="39.3"/>
		<rect x="97.4" y="359.3" class="st2" width="14" height="39.3"/>
		<rect x="120.9" y="359.3" class="st2" width="14" height="39.3"/>
	</g>
	<g>
		<rect x="148.2" y="498.3" class="st2" width="11" height="11"/>
		<rect x="167.2" y="498.3" class="st2" width="11" height="11"/>
		<rect x="186.2" y="498.3" class="st2" width="11" height="11"/>
		<rect x="205.2" y="498.3" class="st2" width="11" height="11"/>
		<rect x="224.2" y="498.3" class="st2" width="11" height="11"/>
		<rect x="243.2" y="498.3" class="st2" width="11" height="11"/>
		<rect x="262.2" y="498.3" class="st2" width="11" height="11"/>
		<rect x="281.2" y="498.3" class="st2" width="11" height="11"/>
	</g>
	<g>
		<rect x="57.2" y="498.3" class="st2" width="11" height="11"/>
		<rect x="76.2" y="498.3" class="st2" width="11" height="11"/>
		<rect x="95.2" y="498.3" class="st2" width="11" height="11"/>
		<rect x="114.2" y="498.3" class="st2" width="11" height="11"/>
	</g>
	<g>
		<rect x="57.2" y="527.8" class="st2" width="11" height="11"/>
		<rect x="76.2" y="527.8" class="st2" width="11" height="11"/>
		<rect x="95.2" y="527.8" class="st2" width="11" height="11"/>
		<rect x="114.2" y="527.8" class="st2" width="11" height="11"/>
	</g>
	<g>
		<rect x="57.2" y="557.3" class="st2" width="11" height="11"/>
		<rect x="76.2" y="557.3" class="st2" width="11" height="11"/>
		<rect x="95.2" y="557.3" class="st2" width="11" height="11"/>
		<rect x="114.2" y="557.3" class="st2" width="11" height="11"/>
	</g>
	<rect x="196.4" y="565.9" class="st2" width="19.9" height="33.5"/>
	<rect x="-66.4" y="398.7" class="st4" width="92.8" height="200.7"/>
	<g>
		<rect x="-55.3" y="422.1" class="st2" width="11.1" height="97.3"/>
		<rect x="-35.5" y="422.1" class="st2" width="11.1" height="97.3"/>
		<rect x="-15.7" y="422.1" class="st2" width="11.1" height="97.3"/>
		<rect x="4.1" y="422.1" class="st2" width="11.1" height="97.3"/>
	</g>
	<rect x="-9.5" y="565.9" class="st2" width="19.9" height="33.5"/>
	<rect x="230.3" y="569" class="st6" width="38.9" height="22.1"/>
	<polygon class="st5" points="254.9,569 276.4,569 271,591.1 249.5,591.1 	"/>
	<circle class="st7" cx="244.9" cy="595.2" r="4.2"/>
	<circle class="st7" cx="262.1" cy="595.2" r="4.2"/>
	<circle class="st2" cx="242.7" cy="595.2" r="4.2"/>
	<circle class="st2" cx="259.9" cy="595.2" r="4.2"/>
	<path class="st7" d="M249.8,596.9h10.4c0.8,0,1.4-0.6,1.4-1.4l0,0c0-0.8-0.6-1.4-1.4-1.4h-10.4c-0.8,0-1.4,0.6-1.4,1.4l0,0
		C248.3,596.3,249,596.9,249.8,596.9z"/>
	<rect x="-81.8" y="599.4" class="st8" width="405.8" height="10.6"/>
</g>
</svg>
