<?xml version="1.0" encoding="utf-8"?>
<!-- Generator: Adobe Illustrator 19.0.0, SVG Export Plug-In . SVG Version: 6.00 Build 0)  -->
<svg version="1.1" id="Capa_1" xmlns="http://www.w3.org/2000/svg" xmlns:xlink="http://www.w3.org/1999/xlink" x="0px" y="0px"
	 viewBox="-220 356.5 171 80.5" style="enable-background:new -220 356.5 171 80.5;" xml:space="preserve">
<style type="text/css">
	.st0{fill:#4F7E46;}
</style>
<g>
	<path class="st0" d="M-156.5,391.9c0.4,0.1,0.6,0.4,0.7,0.8c0.1,0.4,0,0.8-0.2,1.1c-0.9,1.8-1.8,3.6-2.9,5.4
		c-1,1.8-2.1,3.6-3.2,5.4c-1.1,1.7-2.2,3.4-3.3,5c-1.1,1.6-2.1,3.1-3.2,4.4c-3.8,5-7.7,9.1-11.7,12.4c-3.8,3-7.5,5.2-11.1,6.5
		c-1.3,0.5-2.6,0.9-4,1.2c-1.4,0.2-2.8,0.4-4.1,0.4c-1.6,0-3.1-0.2-4.7-0.6c-1.5-0.4-2.9-1-4.2-1.8c-2.3-1.3-4.1-3.1-5.4-5.2
		s-2.3-4.4-2.8-6.9s-0.7-5.1-0.6-7.8c0.2-2.7,0.6-5.3,1.3-7.8c1.2-4.3,2.6-8.4,4.1-12.1c1.5-3.7,3.2-7.2,5.1-10.4
		c1.9-3.2,4.2-6.3,6.6-9.2c2.5-2.9,5.3-5.7,8.4-8.3c1-0.9,2.4-1.8,4.1-2.7s3.6-1.6,5.6-2s4-0.5,6.1-0.2c2.1,0.3,4,1.2,5.8,2.7
		c1.4,1.2,2.5,2.9,3.3,5.1c0.8,2.2,1.3,4.7,1.3,7.3s-0.5,5.2-1.4,7.8c-1,2.6-2.5,4.9-4.7,6.8c-0.7,0.6-1.6,0.8-2.7,0.6
		c-1.1-0.2-2.2-0.5-3.1-1.1c-1-0.6-1.7-1.2-2.1-2c-0.4-0.8-0.3-1.4,0.4-2c1.4-1.1,2.6-2.5,3.7-4.2c1.1-1.7,1.9-3.5,2.5-5.4
		s0.9-3.7,1-5.4c0-1.7-0.2-3.2-0.8-4.3c-0.5-0.9-1.4-1.3-2.7-1.1c-1.2,0.2-2.7,0.9-4.4,2.1c-1.7,1.2-3.5,2.8-5.5,4.9
		c-2,2.1-3.9,4.5-5.9,7.3c-1.5,2.1-2.9,4.3-4.1,6.7c-1.3,2.4-2.4,4.8-3.4,7.1c-1,2.3-1.9,4.6-2.7,6.8c-0.8,2.2-1.4,4.1-1.8,5.8
		c-0.9,3.3-1.3,6.3-1.3,9.1c0,2.8,0.4,5.3,1.1,7.4s1.8,3.9,3.1,5.3c1.4,1.4,3,2.2,4.9,2.5c1.9,0.3,4,0.1,6.3-0.7
		c2.3-0.8,4.7-2.2,7.4-4.4c2-1.6,4-3.6,6-5.8c2-2.2,4.1-4.7,6.1-7.4c2-2.7,3.9-5.6,5.8-8.7c1.9-3.1,3.7-6.3,5.4-9.7
		C-158.1,391.7-157.4,391.5-156.5,391.9z"/>
	<path class="st0" d="M-144.5,389.9c-0.3,0.7-0.8,1.6-1.3,2.7c-0.6,1.1-1.3,2.4-2.1,3.7c-0.8,1.3-1.7,2.6-2.6,3.9
		c-0.9,1.3-1.9,2.5-2.9,3.6c-1,1.1-2,2-3,2.7s-2,1-2.9,1c-0.8,0-1.4-0.1-2-0.5c-0.6-0.3-1-0.8-1.4-1.5c-0.3-0.6-0.6-1.4-0.7-2.3
		c-0.1-0.9-0.1-1.9,0-2.9c0.2-1.3,0.6-3.1,1.5-5.4c0.9-2.3,1.8-4.9,2.9-7.7c1.1-2.8,2.3-5.6,3.6-8.5c1.2-2.9,2.4-5.6,3.3-8
		c1-2.4,1.8-4.5,2.3-6.1s0.7-2.6,0.4-2.9c-0.3-0.2-0.1-0.5,0.4-0.8c0.5-0.3,1.2-0.5,2-0.5c0.8,0,1.6,0.1,2.4,0.5s1.4,1.2,1.8,2.3
		c0.3,0.9,0.2,2.1-0.2,3.8c-0.4,1.6-1.1,3.5-1.9,5.6c-0.8,2.1-1.8,4.4-2.9,6.8s-2.3,4.8-3.4,7.2c-1.1,2.4-2.2,4.6-3.3,6.8
		c-1,2.2-1.9,4.1-2.5,5.8c-0.6,1.7-1,3-1.1,3.9c-0.1,1,0.2,1.4,0.8,1.3c0.4,0,0.9-0.3,1.5-0.9s1.3-1.3,2-2.2
		c0.7-0.9,1.5-1.9,2.3-3.1c0.8-1.1,1.5-2.3,2.2-3.4c0.7-1.1,1.3-2.2,1.9-3.2c0.5-1,0.9-1.8,1.2-2.5c0.1-0.3,0.3-0.5,0.6-0.6
		s0.5-0.1,0.8,0c0.2,0.1,0.4,0.2,0.6,0.5C-144.4,389.4-144.4,389.7-144.5,389.9z"/>
	<path class="st0" d="M-132.5,392.6c-0.6,1.1-1.3,2.4-2.1,3.7c-0.8,1.3-1.7,2.6-2.6,3.9c-0.9,1.3-1.9,2.5-2.9,3.6c-1,1.1-2,2-3,2.7
		s-2,1-2.9,1c-0.8,0-1.4-0.1-2-0.5c-0.6-0.3-1-0.8-1.4-1.5c-0.3-0.6-0.6-1.4-0.7-2.3c-0.1-0.9-0.1-1.9,0-2.9
		c0.2-1.3,0.5-2.6,0.9-4.1c0.4-1.4,1-2.9,1.5-4.3c0.6-1.4,1.2-2.8,1.8-4.2c0.6-1.3,1.1-2.6,1.6-3.6c0.4-1.1,0.8-2,0.9-2.7
		c0.2-0.7,0.1-1.2-0.1-1.5c-0.3-0.2-0.1-0.5,0.4-0.8c0.5-0.3,1.2-0.5,2-0.5s1.6,0.1,2.4,0.5c0.8,0.4,1.4,1.2,1.8,2.3
		c0.3,1.1,0.3,2.5-0.2,4.1s-1.1,3.3-2,5c-0.8,1.7-1.7,3.5-2.7,5.2c-1,1.7-1.7,3.2-2.4,4.6c-0.6,1.3-1,2.4-1.1,3.2
		c-0.1,0.8,0.3,1.2,1.2,1.1c0.4,0,0.9-0.3,1.5-0.9c0.6-0.6,1.3-1.3,2-2.2c0.7-0.9,1.5-1.9,2.3-3.1c0.8-1.1,1.5-2.3,2.2-3.4
		c0.7-1.1,1.3-2.2,1.9-3.2c0.5-1,0.9-1.8,1.2-2.5c0.1-0.3,0.3-0.5,0.6-0.6c0.3-0.1,0.5-0.1,0.8,0c0.2,0.1,0.4,0.2,0.6,0.5
		c0.1,0.2,0.1,0.5,0,0.8C-131.4,390.6-131.9,391.5-132.5,392.6z"/>
	<path class="st0" d="M-135,374.5c0.2-0.5,0.4-0.9,0.7-1.4s0.5-0.9,0.7-1.3c0.2-0.4,0.3-0.8,0.3-1c0-1-0.3-1.8-0.9-2.4
		c-0.6-0.6-1.2-1.1-2-1.4c-0.7-0.3-1.4-0.5-2-0.5c-0.6,0-0.9,0.1-0.9,0.4c0,0.2-0.1,0.6-0.4,1c-0.2,0.4-0.5,0.9-0.8,1.4
		c-0.3,0.5-0.6,1-0.8,1.4c-0.2,0.4-0.4,0.8-0.4,1.1c0,1,0.3,1.8,0.9,2.4c0.6,0.6,1.3,1.1,2,1.4c0.7,0.3,1.4,0.4,2,0.4
		c0.6,0,0.9-0.2,0.9-0.5C-135.3,375.3-135.2,375-135,374.5z"/>
	<path class="st0" d="M-118.1,383.2c0-0.3,0.1-0.6,0.3-0.9c0.2-0.3,0.4-0.5,0.7-0.7c-0.2-0.5-0.5-0.7-0.9-0.7
		c-0.5,0-1.1,0.2-1.8,0.7c-0.7,0.5-1.4,1.3-2.1,2.3c-0.8,1-1.5,2.2-2.4,3.7s-1.6,3.1-2.4,4.9c-0.5,1.1-0.9,2.4-1.3,3.7
		c-0.3,1.4-0.5,2.6-0.6,3.8s0,2.2,0.3,3.1s0.8,1.4,1.5,1.5c0.9,0.2,1.8,0,2.8-0.4c1-0.4,2-1,3-1.8c1-0.8,2-1.8,3-2.9
		s1.9-2.2,2.8-3.4c0.9-1.2,1.6-2.4,2.3-3.6c0.7-1.2,1.2-2.3,1.6-3.3c0.1-0.3,0.3-0.5,0.6-0.6c0.3-0.1,0.6-0.1,0.9,0.1
		c0.5,0.3,0.6,0.7,0.4,1.2c-0.6,1.4-1.4,2.8-2.3,4.3s-1.9,3-3.1,4.5c-1.1,1.4-2.3,2.8-3.6,4c-1.3,1.3-2.6,2.3-4,3.1
		c-1.4,0.8-2.8,1.3-4.3,1.5c-1.5,0.2-2.9,0.1-4.3-0.5c-1.6-0.6-2.7-1.5-3.3-2.7c-0.7-1.2-1.1-2.5-1.2-3.9c-0.1-1.4,0-2.9,0.4-4.4
		c0.3-1.5,0.8-2.9,1.3-4.2c0.9-2.4,2-4.4,3.1-6.1c1.1-1.7,2.4-3.1,3.6-4.1c1.3-1.1,2.6-1.8,4-2.3s2.7-0.7,4.1-0.6
		c0.5,0,1,0.1,1.5,0.3c0.5,0.1,1,0.4,1.5,0.7c0.4,0.3,0.8,0.7,1.1,1.3c0.3,0.5,0.5,1.2,0.5,2s-0.2,1.3-0.5,1.7
		c-0.3,0.4-0.7,0.6-1.3,0.6c-0.5,0-0.9-0.2-1.3-0.5C-117.9,384.1-118.1,383.7-118.1,383.2z"/>
	<path class="st0" d="M-115.8,404.7c-0.2-0.7-0.2-1.8,0.2-3.4c0.4-1.6,0.9-3.4,1.7-5.4c0.8-2.1,1.6-4.3,2.6-6.7c1-2.4,2-4.8,3.1-7.3
		c1.1-2.4,2.1-4.8,3.1-7.1c1-2.3,1.9-4.4,2.6-6.2c0.7-1.8,1.3-3.3,1.6-4.5c0.4-1.2,0.4-1.9,0.2-2.2c-0.3-0.2-0.1-0.5,0.4-0.8
		c0.5-0.3,1.2-0.5,2-0.5s1.6,0.1,2.4,0.5s1.4,1.2,1.7,2.3c0.2,0.8,0.1,2.1-0.3,3.8c-0.5,1.7-1.1,3.7-2,5.9c-0.9,2.2-1.9,4.6-3.1,7.2
		c-1.2,2.6-2.4,5.1-3.6,7.6c0.8-0.7,1.7-1.4,2.7-2.2c1-0.8,2-1.6,3.1-2.5c1-0.9,2-1.7,3-2.6s1.8-1.7,2.6-2.4c0.8-0.7,1.4-1.4,1.8-2
		c0.5-0.6,0.7-1.1,0.7-1.4c0-0.4,0.3-0.4,0.9-0.3c0.6,0.2,1.2,0.5,1.7,1.1c0.6,0.6,1,1.3,1.3,2.2c0.3,0.9,0.1,1.8-0.5,2.9
		c-0.5,0.8-1.2,1.6-2.2,2.4c-1,0.8-2.1,1.5-3.3,2.2c-1.2,0.7-2.5,1.4-3.9,2c-1.4,0.6-2.7,1.2-3.9,1.7c0.6,0.9,1.3,2.2,2.2,3.8
		c0.9,1.6,1.9,3.4,2.9,5.4c1.1,2,2.3,4,3.5,6s2.5,3.9,3.9,5.5c1.3,1.7,2.7,3,4,4.1c1.3,1.1,2.6,1.6,3.9,1.7c0.3,0,0.5,0.3,0.4,0.8
		s-0.3,1.1-0.8,1.7s-1.1,1.2-2,1.7s-1.9,0.8-3.1,0.7c-1.8,0-3.5-0.8-4.9-2.2c-1.4-1.4-2.7-3.2-3.9-5.4c-1.1-2.2-2.2-4.5-3.1-7
		s-1.7-4.9-2.5-7.1c-0.8-2.2-1.5-4.1-2.1-5.6s-1.3-2.4-2-2.7c-0.5,0.3-1,0.5-1.4,0.7c-0.4,0.2-0.7,0.4-1,0.6
		c-0.9,1.8-1.6,3.5-2.4,5.1c-0.7,1.6-1.3,3.1-1.8,4.3c-0.5,1.2-0.8,2.4-1,3.3s-0.2,1.5,0,1.9c0.2,0.3,0,0.6-0.4,1
		c-0.4,0.3-0.9,0.5-1.6,0.5c-0.6,0-1.3-0.2-2-0.6C-114.9,406.7-115.5,405.9-115.8,404.7z"/>
	<path class="st0" d="M-70.5,383.2c0-0.3,0.1-0.6,0.3-0.9c0.2-0.3,0.4-0.5,0.7-0.7c-0.2-0.5-0.5-0.7-0.9-0.7c-0.5,0-1.1,0.2-1.8,0.7
		s-1.4,1.3-2.1,2.3c-0.8,1-1.5,2.2-2.4,3.7c-0.8,1.5-1.6,3.1-2.4,4.9c-0.5,1.1-0.9,2.3-1.3,3.6c-0.3,1.3-0.5,2.5-0.6,3.7
		c0,1.2,0.1,2.2,0.4,3.1c0.3,0.9,0.8,1.5,1.5,1.7c0.5,0.2,1.1,0.2,1.7-0.2c0.6-0.3,1.2-0.9,1.8-1.6c0.6-0.7,1.2-1.6,1.9-2.7
		c0.6-1,1.3-2.1,1.9-3.3c0.6-1.1,1.2-2.3,1.7-3.4c0.6-1.1,1.1-2.2,1.6-3.2c0.5-1.3,1.1-2.5,1.6-3.6s1-2.2,1.3-3.1s0.6-1.7,0.7-2.3
		c0.1-0.6,0.1-1.1-0.2-1.3c-0.3-0.2-0.1-0.5,0.4-0.8c0.5-0.3,1.2-0.5,2-0.5s1.6,0.1,2.4,0.5c0.8,0.4,1.4,1.2,1.8,2.3
		c0.3,1.1,0.3,2.5-0.2,4.1s-1.1,3.3-2,5c-0.8,1.7-1.7,3.5-2.7,5.2c-1,1.7-1.7,3.2-2.4,4.6c-0.6,1.3-1,2.4-1.1,3.2s0.3,1.2,1.2,1.1
		c0.4,0,0.8-0.3,1.5-0.9c0.7-0.6,1.3-1.3,2-2.2s1.5-1.9,2.3-3.1c0.8-1.1,1.5-2.3,2.2-3.4s1.3-2.2,1.8-3.2s0.9-1.8,1.2-2.5
		c0.1-0.3,0.3-0.5,0.6-0.6c0.3-0.1,0.5-0.1,0.8,0c0.2,0.1,0.4,0.2,0.6,0.5c0.1,0.2,0.1,0.5,0,0.8c-0.3,0.7-0.8,1.6-1.3,2.7
		c-0.6,1.1-1.3,2.4-2.1,3.7c-0.8,1.3-1.7,2.6-2.6,3.9c-0.9,1.3-1.9,2.5-2.9,3.6s-2,2-3,2.7c-1,0.7-2,1-2.9,1
		c-1.5,0.1-2.6-0.5-3.3-1.8c-0.7-1.3-1-2.9-0.8-4.9c-0.7,1.2-1.5,2.3-2.3,3.3s-1.7,1.8-2.6,2.4c-1,0.6-2,0.9-3,1s-2.2-0.1-3.5-0.6
		c-1.6-0.6-2.7-1.5-3.3-2.7c-0.7-1.2-1.1-2.5-1.2-3.9c-0.1-1.4,0-2.9,0.3-4.4s0.8-2.9,1.3-4.2c0.9-2.4,2-4.4,3.1-6.1
		c1.1-1.7,2.4-3.1,3.6-4.1c1.3-1.1,2.6-1.8,4-2.3s2.7-0.7,4.1-0.6c0.5,0,1,0.1,1.5,0.3c0.5,0.1,1,0.4,1.5,0.7
		c0.4,0.3,0.8,0.7,1.1,1.3c0.3,0.5,0.5,1.2,0.5,2c0,0.9-0.2,1.4-0.6,1.7c-0.3,0.3-0.7,0.5-1.2,0.5s-0.9-0.2-1.3-0.5
		C-70,384.4-70.5,383.7-70.5,383.2z"/>
</g>
<g>
	<path class="st0" d="M-143.1,425.6c-0.1-0.7-0.3-1.2-0.8-1.6c-0.4-0.3-1.1-0.5-2-0.5c-1.6,0-2.4,0.6-2.4,1.7c0,0.4,0.2,0.7,0.5,1
		c0.3,0.3,0.9,0.5,1.6,0.7c0.9,0.2,1.6,0.4,2.3,0.6c0.6,0.2,1.2,0.4,1.8,0.6c0.3,0.1,0.6,0.3,0.8,0.5c0.3,0.2,0.5,0.4,0.7,0.7
		c0.2,0.3,0.3,0.6,0.4,1c0.1,0.4,0.2,0.8,0.2,1.4c0,0.7-0.1,1.2-0.4,1.7s-0.6,0.9-1.1,1.3c-0.5,0.3-1,0.6-1.6,0.8
		c-0.6,0.2-1.3,0.3-2,0.3c-2,0-3.5-0.4-4.5-1.1c-1-0.8-1.5-1.9-1.6-3.4h2.7c0,0.7,0.3,1.2,0.8,1.6c0.6,0.4,1.2,0.6,2.1,0.6
		c0.9,0,1.6-0.2,2-0.5c0.5-0.3,0.7-0.8,0.7-1.3c0-0.2,0-0.4-0.1-0.6c-0.1-0.2-0.2-0.4-0.3-0.5c-0.2-0.1-0.4-0.3-0.6-0.4
		c-0.3-0.1-0.6-0.2-1.1-0.3c-1-0.2-1.9-0.4-2.7-0.7c-0.8-0.2-1.4-0.5-1.9-0.8c-0.5-0.3-0.9-0.7-1.1-1.2c-0.2-0.5-0.3-1.1-0.3-1.8
		c0-0.6,0.1-1.1,0.3-1.6c0.2-0.5,0.5-0.9,0.9-1.3c0.4-0.4,0.9-0.6,1.6-0.9c0.6-0.2,1.4-0.3,2.2-0.3c0.8,0,1.6,0.1,2.2,0.3
		c0.7,0.2,1.2,0.5,1.7,0.9s0.8,0.9,1.1,1.4c0.3,0.6,0.4,1.2,0.4,1.8H-143.1z"/>
	<path class="st0" d="M-136.8,430.8c0,0.8,0.3,1.4,0.7,1.8c0.4,0.5,0.9,0.7,1.6,0.7c0.4,0,0.8-0.1,1.2-0.3c0.3-0.2,0.5-0.5,0.6-0.8
		h2.7c-0.3,1-0.9,1.8-1.6,2.4c-0.8,0.6-1.7,0.8-2.8,0.8c-3.4,0-5-1.8-5-5.5c0-0.8,0.1-1.5,0.3-2.1s0.5-1.2,1-1.6
		c0.4-0.4,0.9-0.8,1.5-1c0.6-0.2,1.3-0.4,2.1-0.4c1.6,0,2.7,0.5,3.5,1.5c0.8,1,1.2,2.5,1.2,4.5H-136.8z M-132.6,429.1
		c0-0.4-0.1-0.7-0.2-1c-0.1-0.3-0.3-0.5-0.5-0.7c-0.2-0.2-0.4-0.3-0.7-0.4c-0.2-0.1-0.5-0.1-0.8-0.1c-0.5,0-1,0.2-1.4,0.6
		c-0.4,0.4-0.6,0.9-0.7,1.6H-132.6z"/>
	<path class="st0" d="M-129.1,435.1v-10.1h2.5v1.2c0.2-0.3,0.4-0.6,0.7-0.8c0.2-0.2,0.5-0.3,0.7-0.4c0.3-0.1,0.5-0.2,0.8-0.2
		c0.3,0,0.5,0,0.8,0h0.3v2.7c-0.2,0-0.5-0.1-0.7-0.1c-1.6,0-2.4,0.8-2.4,2.4v5.2H-129.1z"/>
	<path class="st0" d="M-119.5,435.1l-3.6-10.1h3l2.1,6.7l2.1-6.7h2.8l-3.6,10.1H-119.5z"/>
	<path class="st0" d="M-112.4,423.9v-2.5h2.7v2.5H-112.4z M-112.4,435.1v-10.1h2.7v10.1H-112.4z"/>
	<path class="st0" d="M-99.6,431.5c-0.1,0.6-0.2,1.1-0.5,1.6c-0.3,0.5-0.6,0.9-1,1.2c-0.4,0.3-0.9,0.6-1.4,0.8
		c-0.5,0.2-1.1,0.3-1.7,0.3c-0.7,0-1.3-0.1-1.9-0.3c-0.6-0.2-1.1-0.6-1.5-1c-0.4-0.5-0.7-1-1-1.7c-0.2-0.7-0.3-1.5-0.3-2.4
		s0.1-1.7,0.3-2.3c0.2-0.7,0.5-1.2,1-1.6c0.4-0.4,0.9-0.7,1.5-0.9c0.6-0.2,1.2-0.3,1.9-0.3c0.7,0,1.3,0.1,1.8,0.3
		c0.5,0.2,1,0.4,1.4,0.8c0.4,0.3,0.7,0.8,1,1.2c0.2,0.5,0.4,1,0.4,1.6h-2.7c-0.1-0.5-0.3-0.9-0.6-1.2c-0.3-0.3-0.8-0.4-1.3-0.4
		c-0.3,0-0.6,0-0.8,0.1c-0.2,0.1-0.5,0.3-0.6,0.5s-0.3,0.5-0.4,0.9c-0.1,0.4-0.2,0.8-0.2,1.4c0,1.1,0.2,1.9,0.6,2.5
		c0.4,0.5,0.9,0.8,1.4,0.8c0.5,0,1-0.1,1.3-0.4c0.4-0.3,0.6-0.7,0.6-1.2H-99.6z"/>
	<path class="st0" d="M-98.8,423.9v-2.5h2.7v2.5H-98.8z M-98.8,435.1v-10.1h2.7v10.1H-98.8z"/>
	<path class="st0" d="M-90.1,435.4c-0.8,0-1.5-0.1-2.2-0.4c-0.6-0.3-1.2-0.6-1.6-1.1c-0.4-0.5-0.8-1-1-1.7c-0.2-0.7-0.3-1.4-0.3-2.1
		c0-0.8,0.1-1.5,0.4-2.2c0.2-0.7,0.6-1.2,1-1.7c0.4-0.5,1-0.8,1.6-1.1c0.6-0.3,1.4-0.4,2.2-0.4c0.8,0,1.5,0.1,2.1,0.4
		c0.6,0.3,1.2,0.6,1.6,1.1c0.4,0.5,0.8,1,1,1.7c0.2,0.7,0.4,1.4,0.4,2.2c0,0.8-0.1,1.5-0.4,2.2s-0.6,1.2-1,1.7
		c-0.4,0.5-1,0.8-1.6,1.1S-89.3,435.4-90.1,435.4z M-90.1,433.2c1.6,0,2.4-1,2.4-3.1c0-2-0.8-3-2.4-3c-1.6,0-2.4,1-2.4,3
		C-92.5,432.2-91.7,433.2-90.1,433.2z"/>
	<path class="st0" d="M-78.1,428.1c-0.1-0.5-0.2-0.8-0.5-1c-0.3-0.2-0.7-0.3-1.3-0.3c-0.5,0-1,0.1-1.2,0.2c-0.3,0.1-0.4,0.4-0.4,0.7
		c0,0.3,0.1,0.5,0.4,0.7c0.3,0.2,0.7,0.3,1.2,0.5c0.9,0.2,1.6,0.5,2.2,0.6c0.6,0.2,1.1,0.4,1.4,0.6c0.4,0.2,0.6,0.5,0.8,0.9
		c0.2,0.3,0.2,0.8,0.2,1.4c0,0.9-0.4,1.6-1.1,2.2c-0.8,0.6-1.9,0.9-3.3,0.9c-0.7,0-1.4-0.1-2-0.2c-0.6-0.2-1.1-0.4-1.5-0.7
		c-0.4-0.3-0.7-0.7-1-1.1c-0.2-0.4-0.3-0.9-0.4-1.4h2.7c0,0.5,0.2,0.8,0.6,1.1c0.4,0.3,0.9,0.4,1.5,0.4c0.5,0,0.9-0.1,1.3-0.2
		c0.4-0.2,0.5-0.4,0.5-0.7c0-0.4-0.1-0.6-0.4-0.8c-0.3-0.2-0.7-0.3-1.2-0.4c-1-0.2-1.8-0.4-2.4-0.7c-0.6-0.2-1.1-0.5-1.4-0.8
		c-0.3-0.3-0.6-0.6-0.7-0.9c-0.1-0.3-0.2-0.7-0.2-1.1c0-0.4,0.1-0.7,0.2-1.1c0.2-0.3,0.4-0.6,0.7-0.9c0.3-0.3,0.8-0.5,1.3-0.6
		c0.5-0.2,1.2-0.2,2-0.2c1.4,0,2.5,0.3,3.2,0.9c0.7,0.6,1,1.4,1.1,2.4H-78.1z"/>
	<path class="st0" d="M-65.9,435.1v-11.2H-70v-2.4h11.1v2.4H-63v11.2H-65.9z"/>
	<path class="st0" d="M-58.3,435.1v-13.6h2.8v13.6H-58.3z"/>
</g>
</svg>
