<?xml version="1.0" encoding="utf-8"?>
<!-- Generator: Adobe Illustrator 19.0.0, SVG Export Plug-In . SVG Version: 6.00 Build 0)  -->
<svg version="1.1" id="Capa_1" xmlns="http://www.w3.org/2000/svg" xmlns:xlink="http://www.w3.org/1999/xlink" x="0px" y="0px"
	 viewBox="0 0 171 80.5" style="enable-background:new 0 0 171 80.5;" xml:space="preserve">
<style type="text/css">
	.st0{fill:#5DBE79;}
	.st1{fill:#5FBE7A;}
</style>
<g>
	<path class="st0" d="M63.5,35.4c0.4,0.1,0.6,0.4,0.7,0.8c0.1,0.4,0,0.8-0.2,1.1c-0.9,1.8-1.8,3.6-2.9,5.4c-1,1.8-2.1,3.6-3.2,5.4
		c-1.1,1.7-2.2,3.4-3.3,5c-1.1,1.6-2.1,3.1-3.2,4.4c-3.8,5-7.7,9.1-11.7,12.4c-3.8,3-7.5,5.2-11.1,6.5c-1.3,0.5-2.6,0.9-4,1.2
		c-1.4,0.2-2.8,0.4-4.1,0.4c-1.6,0-3.1-0.2-4.7-0.6c-1.5-0.4-2.9-1-4.2-1.8c-2.3-1.3-4.1-3.1-5.4-5.2c-1.3-2.1-2.3-4.4-2.8-6.9
		c-0.5-2.5-0.7-5.1-0.6-7.8c0.2-2.7,0.6-5.3,1.3-7.8c1.2-4.3,2.6-8.4,4.1-12.1c1.5-3.7,3.2-7.2,5.1-10.4s4.2-6.3,6.6-9.2
		c2.5-2.9,5.3-5.7,8.4-8.3c1-0.9,2.4-1.8,4.1-2.7c1.7-0.9,3.6-1.6,5.6-2c2-0.4,4-0.5,6.1-0.2c2.1,0.3,4,1.2,5.8,2.7
		c1.4,1.2,2.5,2.9,3.3,5.1c0.8,2.2,1.3,4.7,1.3,7.3s-0.5,5.2-1.4,7.8c-1,2.6-2.5,4.9-4.7,6.8c-0.7,0.6-1.6,0.8-2.7,0.6
		c-1.1-0.2-2.2-0.5-3.1-1.1c-1-0.6-1.7-1.2-2.1-2c-0.4-0.8-0.3-1.4,0.4-2c1.4-1.1,2.6-2.5,3.7-4.2c1.1-1.7,1.9-3.5,2.5-5.4
		c0.6-1.9,0.9-3.7,1-5.4c0-1.7-0.2-3.2-0.8-4.3c-0.5-0.9-1.4-1.3-2.7-1.1c-1.2,0.2-2.7,0.9-4.4,2.1c-1.7,1.2-3.5,2.8-5.5,4.9
		c-2,2.1-3.9,4.5-5.9,7.3c-1.5,2.1-2.9,4.3-4.1,6.7c-1.3,2.4-2.4,4.8-3.4,7.1c-1,2.3-1.9,4.6-2.7,6.8c-0.8,2.2-1.4,4.1-1.8,5.8
		c-0.9,3.3-1.3,6.3-1.3,9.1c0,2.8,0.4,5.3,1.1,7.4c0.7,2.1,1.8,3.9,3.1,5.3c1.4,1.4,3,2.2,4.9,2.5c1.9,0.3,4,0.1,6.3-0.7
		c2.3-0.8,4.7-2.2,7.4-4.4c2-1.6,4-3.6,6-5.8c2-2.2,4.1-4.7,6.1-7.4c2-2.7,3.9-5.6,5.8-8.7c1.9-3.1,3.7-6.3,5.4-9.7
		C61.9,35.2,62.6,35,63.5,35.4z"/>
	<path class="st0" d="M75.5,33.4c-0.3,0.7-0.8,1.6-1.3,2.7c-0.6,1.1-1.3,2.4-2.1,3.7c-0.8,1.3-1.7,2.6-2.6,3.9
		c-0.9,1.3-1.9,2.5-2.9,3.6s-2,2-3,2.7c-1,0.7-2,1-2.9,1c-0.8,0-1.4-0.1-2-0.5c-0.6-0.3-1-0.8-1.4-1.5c-0.3-0.6-0.6-1.4-0.7-2.3
		c-0.1-0.9-0.1-1.9,0-2.9c0.2-1.3,0.6-3.1,1.5-5.4s1.8-4.9,2.9-7.7c1.1-2.8,2.3-5.6,3.6-8.5c1.2-2.9,2.4-5.6,3.3-8
		c1-2.4,1.8-4.5,2.3-6.1c0.5-1.6,0.7-2.6,0.4-2.9c-0.3-0.2-0.1-0.5,0.4-0.8s1.2-0.5,2-0.5c0.8,0,1.6,0.1,2.4,0.5
		c0.8,0.4,1.4,1.2,1.8,2.3c0.3,0.9,0.2,2.1-0.2,3.8c-0.4,1.6-1.1,3.5-1.9,5.6c-0.8,2.1-1.8,4.4-2.9,6.8c-1.1,2.4-2.3,4.8-3.4,7.2
		c-1.1,2.4-2.2,4.6-3.3,6.8c-1,2.2-1.9,4.1-2.5,5.8c-0.6,1.7-1,3-1.1,3.9c-0.1,1,0.2,1.4,0.8,1.3c0.4,0,0.9-0.3,1.5-0.9
		c0.6-0.6,1.3-1.3,2-2.2c0.7-0.9,1.5-1.9,2.3-3.1c0.8-1.1,1.5-2.3,2.2-3.4c0.7-1.1,1.3-2.2,1.9-3.2c0.5-1,0.9-1.8,1.2-2.5
		c0.1-0.3,0.3-0.5,0.6-0.6c0.3-0.1,0.5-0.1,0.8,0c0.2,0.1,0.4,0.2,0.6,0.5C75.6,32.9,75.6,33.2,75.5,33.4z"/>
	<path class="st0" d="M87.5,36.1c-0.6,1.1-1.3,2.4-2.1,3.7c-0.8,1.3-1.7,2.6-2.6,3.9c-0.9,1.3-1.9,2.5-2.9,3.6s-2,2-3,2.7
		c-1,0.7-2,1-2.9,1c-0.8,0-1.4-0.1-2-0.5c-0.6-0.3-1-0.8-1.4-1.5c-0.3-0.6-0.6-1.4-0.7-2.3c-0.1-0.9-0.1-1.9,0-2.9
		c0.2-1.3,0.5-2.6,0.9-4.1c0.4-1.4,1-2.9,1.5-4.3c0.6-1.4,1.2-2.8,1.8-4.2c0.6-1.3,1.1-2.6,1.6-3.6c0.4-1.1,0.8-2,0.9-2.7
		c0.2-0.7,0.1-1.2-0.1-1.5c-0.3-0.2-0.1-0.5,0.4-0.8c0.5-0.3,1.2-0.5,2-0.5c0.8,0,1.6,0.1,2.4,0.5c0.8,0.4,1.4,1.2,1.8,2.3
		c0.3,1.1,0.3,2.5-0.2,4.1c-0.5,1.6-1.1,3.3-2,5c-0.8,1.7-1.7,3.5-2.7,5.2c-1,1.7-1.7,3.2-2.4,4.6c-0.6,1.3-1,2.4-1.1,3.2
		c-0.1,0.8,0.3,1.2,1.2,1.1c0.4,0,0.9-0.3,1.5-0.9c0.6-0.6,1.3-1.3,2-2.2c0.7-0.9,1.5-1.9,2.3-3.1c0.8-1.1,1.5-2.3,2.2-3.4
		c0.7-1.1,1.3-2.2,1.9-3.2c0.5-1,0.9-1.8,1.2-2.5c0.1-0.3,0.3-0.5,0.6-0.6c0.3-0.1,0.5-0.1,0.8,0c0.2,0.1,0.4,0.2,0.6,0.5
		c0.1,0.2,0.1,0.5,0,0.8C88.6,34.1,88.1,35,87.5,36.1z"/>
	<path class="st0" d="M85,18c0.2-0.5,0.4-0.9,0.7-1.4c0.3-0.5,0.5-0.9,0.7-1.3c0.2-0.4,0.3-0.8,0.3-1c0-1-0.3-1.8-0.9-2.4
		c-0.6-0.6-1.2-1.1-2-1.4c-0.7-0.3-1.4-0.5-2-0.5c-0.6,0-0.9,0.1-0.9,0.4c0,0.2-0.1,0.6-0.4,1c-0.2,0.4-0.5,0.9-0.8,1.4
		c-0.3,0.5-0.6,1-0.8,1.4c-0.2,0.4-0.4,0.8-0.4,1.1c0,1,0.3,1.8,0.9,2.4c0.6,0.6,1.3,1.1,2,1.4s1.4,0.4,2,0.4c0.6,0,0.9-0.2,0.9-0.5
		C84.7,18.8,84.8,18.5,85,18z"/>
	<path class="st0" d="M101.9,26.7c0-0.3,0.1-0.6,0.3-0.9c0.2-0.3,0.4-0.5,0.7-0.7c-0.2-0.5-0.5-0.7-0.9-0.7c-0.5,0-1.1,0.2-1.8,0.7
		c-0.7,0.5-1.4,1.3-2.1,2.3c-0.8,1-1.5,2.2-2.4,3.7s-1.6,3.1-2.4,4.9c-0.5,1.1-0.9,2.4-1.3,3.7c-0.3,1.4-0.5,2.6-0.6,3.8
		c-0.1,1.2,0,2.2,0.3,3.1c0.3,0.9,0.8,1.4,1.5,1.5c0.9,0.2,1.8,0,2.8-0.4c1-0.4,2-1,3-1.8c1-0.8,2-1.8,3-2.9c1-1.1,1.9-2.2,2.8-3.4
		s1.6-2.4,2.3-3.6c0.7-1.2,1.2-2.3,1.6-3.3c0.1-0.3,0.3-0.5,0.6-0.6c0.3-0.1,0.6-0.1,0.9,0.1c0.5,0.3,0.6,0.7,0.4,1.2
		c-0.6,1.4-1.4,2.8-2.3,4.3c-0.9,1.5-1.9,3-3.1,4.5c-1.1,1.4-2.3,2.8-3.6,4c-1.3,1.3-2.6,2.3-4,3.1c-1.4,0.8-2.8,1.3-4.3,1.5
		c-1.5,0.2-2.9,0.1-4.3-0.5c-1.6-0.6-2.7-1.5-3.3-2.7c-0.7-1.2-1.1-2.5-1.2-3.9c-0.1-1.4,0-2.9,0.4-4.4c0.3-1.5,0.8-2.9,1.3-4.2
		c0.9-2.4,2-4.4,3.1-6.1c1.1-1.7,2.4-3.1,3.6-4.1c1.3-1.1,2.6-1.8,4-2.3c1.4-0.5,2.7-0.7,4.1-0.6c0.5,0,1,0.1,1.5,0.3
		c0.5,0.1,1,0.4,1.5,0.7c0.4,0.3,0.8,0.7,1.1,1.3c0.3,0.5,0.5,1.2,0.5,2s-0.2,1.3-0.5,1.7c-0.3,0.4-0.7,0.6-1.3,0.6
		c-0.5,0-0.9-0.2-1.3-0.5C102.1,27.6,101.9,27.2,101.9,26.7z"/>
	<path class="st0" d="M104.2,48.2c-0.2-0.7-0.2-1.8,0.2-3.4c0.4-1.6,0.9-3.4,1.7-5.4c0.8-2.1,1.6-4.3,2.6-6.7c1-2.4,2-4.8,3.1-7.3
		c1.1-2.4,2.1-4.8,3.1-7.1c1-2.3,1.9-4.4,2.6-6.2s1.3-3.3,1.6-4.5c0.4-1.2,0.4-1.9,0.2-2.2c-0.3-0.2-0.1-0.5,0.4-0.8
		c0.5-0.3,1.2-0.5,2-0.5c0.8,0,1.6,0.1,2.4,0.5c0.8,0.4,1.4,1.2,1.7,2.3c0.2,0.8,0.1,2.1-0.3,3.8c-0.5,1.7-1.1,3.7-2,5.9
		c-0.9,2.2-1.9,4.6-3.1,7.2c-1.2,2.6-2.4,5.1-3.6,7.6c0.8-0.7,1.7-1.4,2.7-2.2c1-0.8,2-1.6,3.1-2.5c1-0.9,2-1.7,3-2.6
		c1-0.9,1.8-1.7,2.6-2.4c0.8-0.7,1.4-1.4,1.8-2c0.5-0.6,0.7-1.1,0.7-1.4c0-0.4,0.3-0.4,0.9-0.3c0.6,0.2,1.2,0.5,1.7,1.1
		c0.6,0.6,1,1.3,1.3,2.2c0.3,0.9,0.1,1.8-0.5,2.9c-0.5,0.8-1.2,1.6-2.2,2.4c-1,0.8-2.1,1.5-3.3,2.2c-1.2,0.7-2.5,1.4-3.9,2
		c-1.4,0.6-2.7,1.2-3.9,1.7c0.6,0.9,1.3,2.2,2.2,3.8c0.9,1.6,1.9,3.4,2.9,5.4c1.1,2,2.3,4,3.5,6c1.2,2,2.5,3.9,3.9,5.5
		c1.3,1.7,2.7,3,4,4.1c1.3,1.1,2.6,1.6,3.9,1.7c0.3,0,0.5,0.3,0.4,0.8c-0.1,0.5-0.3,1.1-0.8,1.7c-0.5,0.6-1.1,1.2-2,1.7
		c-0.9,0.5-1.9,0.8-3.1,0.7c-1.8,0-3.5-0.8-4.9-2.2c-1.4-1.4-2.7-3.2-3.9-5.4c-1.1-2.2-2.2-4.5-3.1-7c-0.9-2.5-1.7-4.9-2.5-7.1
		c-0.8-2.2-1.5-4.1-2.1-5.6c-0.6-1.5-1.3-2.4-2-2.7c-0.5,0.3-1,0.5-1.4,0.7c-0.4,0.2-0.7,0.4-1,0.6c-0.9,1.8-1.6,3.5-2.4,5.1
		c-0.7,1.6-1.3,3.1-1.8,4.3s-0.8,2.4-1,3.3c-0.2,0.9-0.2,1.5,0,1.9c0.2,0.3,0,0.6-0.4,1c-0.4,0.3-0.9,0.5-1.6,0.5
		c-0.6,0-1.3-0.2-2-0.6C105.1,50.2,104.5,49.4,104.2,48.2z"/>
	<path class="st0" d="M149.5,26.7c0-0.3,0.1-0.6,0.3-0.9c0.2-0.3,0.4-0.5,0.7-0.7c-0.2-0.5-0.5-0.7-0.9-0.7c-0.5,0-1.1,0.2-1.8,0.7
		c-0.7,0.5-1.4,1.3-2.1,2.3c-0.8,1-1.5,2.2-2.4,3.7c-0.8,1.5-1.6,3.1-2.4,4.9c-0.5,1.1-0.9,2.3-1.3,3.6c-0.3,1.3-0.5,2.5-0.6,3.7
		c0,1.2,0.1,2.2,0.4,3.1c0.3,0.9,0.8,1.5,1.5,1.7c0.5,0.2,1.1,0.2,1.7-0.2c0.6-0.3,1.2-0.9,1.8-1.6c0.6-0.7,1.2-1.6,1.9-2.7
		c0.6-1,1.3-2.1,1.9-3.3c0.6-1.1,1.2-2.3,1.7-3.4c0.6-1.1,1.1-2.2,1.6-3.2c0.5-1.3,1.1-2.5,1.6-3.6s1-2.2,1.3-3.1s0.6-1.7,0.7-2.3
		c0.1-0.6,0.1-1.1-0.2-1.3c-0.3-0.2-0.1-0.5,0.4-0.8c0.5-0.3,1.2-0.5,2-0.5c0.8,0,1.6,0.1,2.4,0.5c0.8,0.4,1.4,1.2,1.8,2.3
		c0.3,1.1,0.3,2.5-0.2,4.1c-0.5,1.6-1.1,3.3-2,5c-0.8,1.7-1.7,3.5-2.7,5.2c-1,1.7-1.7,3.2-2.4,4.6c-0.6,1.3-1,2.4-1.1,3.2
		c-0.1,0.8,0.3,1.2,1.2,1.1c0.4,0,0.8-0.3,1.5-0.9s1.3-1.3,2-2.2c0.7-0.9,1.5-1.9,2.3-3.1c0.8-1.1,1.5-2.3,2.2-3.4
		c0.7-1.1,1.3-2.2,1.8-3.2c0.5-1,0.9-1.8,1.2-2.5c0.1-0.3,0.3-0.5,0.6-0.6c0.3-0.1,0.5-0.1,0.8,0c0.2,0.1,0.4,0.2,0.6,0.5
		c0.1,0.2,0.1,0.5,0,0.8c-0.3,0.7-0.8,1.6-1.3,2.7c-0.6,1.1-1.3,2.4-2.1,3.7c-0.8,1.3-1.7,2.6-2.6,3.9c-0.9,1.3-1.9,2.5-2.9,3.6
		c-1,1.1-2,2-3,2.7c-1,0.7-2,1-2.9,1c-1.5,0.1-2.6-0.5-3.3-1.8c-0.7-1.3-1-2.9-0.8-4.9c-0.7,1.2-1.5,2.3-2.3,3.3
		c-0.8,1-1.7,1.8-2.6,2.4c-1,0.6-2,0.9-3,1s-2.2-0.1-3.5-0.6c-1.6-0.6-2.7-1.5-3.3-2.7c-0.7-1.2-1.1-2.5-1.2-3.9
		c-0.1-1.4,0-2.9,0.3-4.4c0.3-1.5,0.8-2.9,1.3-4.2c0.9-2.4,2-4.4,3.1-6.1c1.1-1.7,2.4-3.1,3.6-4.1c1.3-1.1,2.6-1.8,4-2.3
		c1.4-0.5,2.7-0.7,4.1-0.6c0.5,0,1,0.1,1.5,0.3c0.5,0.1,1,0.4,1.5,0.7c0.4,0.3,0.8,0.7,1.1,1.3c0.3,0.5,0.5,1.2,0.5,2
		c0,0.9-0.2,1.4-0.6,1.7c-0.3,0.3-0.7,0.5-1.2,0.5c-0.5,0-0.9-0.2-1.3-0.5S149.5,27.2,149.5,26.7z"/>
</g>
<g>
	<path class="st1" d="M84.3,67.4c-0.1-0.5-0.2-0.9-0.6-1.1c-0.3-0.3-0.8-0.4-1.5-0.4c-1.2,0-1.8,0.4-1.8,1.2c0,0.3,0.1,0.5,0.4,0.7
		c0.2,0.2,0.6,0.4,1.2,0.5c0.6,0.2,1.2,0.3,1.7,0.4c0.5,0.1,0.9,0.3,1.3,0.5c0.2,0.1,0.4,0.2,0.6,0.3c0.2,0.1,0.4,0.3,0.5,0.5
		c0.1,0.2,0.2,0.4,0.3,0.7c0.1,0.3,0.1,0.6,0.1,1c0,0.5-0.1,0.9-0.3,1.3s-0.5,0.7-0.8,0.9s-0.7,0.5-1.2,0.6c-0.5,0.1-1,0.2-1.5,0.2
		c-1.5,0-2.6-0.3-3.3-0.8s-1.1-1.4-1.2-2.5h2c0,0.5,0.2,0.9,0.6,1.2c0.4,0.3,0.9,0.4,1.5,0.4c0.7,0,1.2-0.1,1.5-0.4
		c0.3-0.2,0.5-0.6,0.5-1c0-0.2,0-0.3-0.1-0.4c0-0.1-0.1-0.3-0.2-0.4c-0.1-0.1-0.3-0.2-0.5-0.3c-0.2-0.1-0.5-0.2-0.8-0.2
		c-0.8-0.2-1.4-0.3-2-0.5c-0.6-0.2-1-0.4-1.4-0.6c-0.4-0.2-0.6-0.5-0.8-0.9c-0.2-0.4-0.3-0.8-0.3-1.3c0-0.4,0.1-0.8,0.2-1.2
		c0.2-0.4,0.4-0.7,0.7-0.9s0.7-0.5,1.2-0.6c0.5-0.2,1-0.2,1.6-0.2c0.6,0,1.1,0.1,1.6,0.2c0.5,0.2,0.9,0.4,1.2,0.7
		c0.3,0.3,0.6,0.6,0.8,1c0.2,0.4,0.3,0.9,0.3,1.4H84.3z"/>
	<path class="st1" d="M90.7,74.7c-0.6,0-1.1-0.1-1.6-0.3c-0.5-0.2-0.9-0.5-1.2-0.8c-0.3-0.3-0.6-0.8-0.7-1.2c-0.2-0.5-0.3-1-0.3-1.6
		c0-0.6,0.1-1.1,0.3-1.6c0.2-0.5,0.4-0.9,0.8-1.2c0.3-0.3,0.7-0.6,1.2-0.8c0.5-0.2,1-0.3,1.6-0.3c0.6,0,1.1,0.1,1.6,0.3
		c0.5,0.2,0.9,0.4,1.2,0.8c0.3,0.3,0.6,0.7,0.8,1.2c0.2,0.5,0.3,1,0.3,1.6c0,0.6-0.1,1.1-0.3,1.6c-0.2,0.5-0.4,0.9-0.8,1.2
		c-0.3,0.3-0.7,0.6-1.2,0.8C91.8,74.6,91.3,74.7,90.7,74.7z M90.7,73.1c1.2,0,1.8-0.8,1.8-2.3c0-1.5-0.6-2.3-1.8-2.3
		s-1.8,0.8-1.8,2.3C88.9,72.3,89.5,73.1,90.7,73.1z"/>
	<path class="st1" d="M95.2,74.5V64.4h2v10.2H95.2z"/>
	<path class="st1" d="M102.7,74.5v-1c-0.5,0.8-1.3,1.2-2.3,1.2c-0.4,0-0.7-0.1-1-0.2c-0.3-0.1-0.6-0.3-0.8-0.6
		c-0.2-0.2-0.4-0.5-0.5-0.9c-0.1-0.3-0.2-0.7-0.2-1.1v-4.9h2v4.6c0,0.9,0.4,1.4,1.3,1.4c0.5,0,0.9-0.2,1.1-0.5
		c0.3-0.3,0.4-0.7,0.4-1.2v-4.3h1.9v7.4H102.7z"/>
	<path class="st1" d="M112.1,71.8c-0.1,0.4-0.2,0.8-0.4,1.2c-0.2,0.4-0.4,0.7-0.7,0.9c-0.3,0.3-0.6,0.4-1,0.6
		c-0.4,0.1-0.8,0.2-1.3,0.2c-0.5,0-1-0.1-1.4-0.2s-0.8-0.4-1.1-0.8c-0.3-0.3-0.5-0.8-0.7-1.3c-0.2-0.5-0.2-1.1-0.2-1.7
		s0.1-1.2,0.2-1.7c0.2-0.5,0.4-0.9,0.7-1.2c0.3-0.3,0.7-0.5,1.1-0.7c0.4-0.2,0.9-0.2,1.4-0.2c0.5,0,0.9,0.1,1.3,0.2
		c0.4,0.1,0.7,0.3,1,0.6c0.3,0.3,0.5,0.6,0.7,0.9c0.2,0.4,0.3,0.7,0.3,1.2h-2c-0.1-0.4-0.2-0.7-0.5-0.9c-0.3-0.2-0.6-0.3-0.9-0.3
		c-0.2,0-0.4,0-0.6,0.1c-0.2,0.1-0.3,0.2-0.5,0.4s-0.2,0.4-0.3,0.7c-0.1,0.3-0.1,0.6-0.1,1c0,0.8,0.1,1.4,0.4,1.8
		c0.3,0.4,0.6,0.6,1,0.6c0.4,0,0.7-0.1,1-0.3c0.3-0.2,0.4-0.5,0.5-0.9H112.1z"/>
	<path class="st1" d="M112.6,66.2v-1.8h2v1.8H112.6z M112.6,74.5v-7.4h2v7.4H112.6z"/>
	<path class="st1" d="M119.1,74.7c-0.6,0-1.1-0.1-1.6-0.3c-0.5-0.2-0.9-0.5-1.2-0.8c-0.3-0.3-0.6-0.8-0.7-1.2
		c-0.2-0.5-0.3-1-0.3-1.6c0-0.6,0.1-1.1,0.3-1.6c0.2-0.5,0.4-0.9,0.8-1.2c0.3-0.3,0.7-0.6,1.2-0.8c0.5-0.2,1-0.3,1.6-0.3
		c0.6,0,1.1,0.1,1.6,0.3c0.5,0.2,0.9,0.4,1.2,0.8c0.3,0.3,0.6,0.7,0.8,1.2c0.2,0.5,0.3,1,0.3,1.6c0,0.6-0.1,1.1-0.3,1.6
		c-0.2,0.5-0.4,0.9-0.8,1.2c-0.3,0.3-0.7,0.6-1.2,0.8C120.1,74.6,119.6,74.7,119.1,74.7z M119.1,73.1c1.2,0,1.8-0.8,1.8-2.3
		c0-1.5-0.6-2.3-1.8-2.3s-1.8,0.8-1.8,2.3C117.3,72.3,117.9,73.1,119.1,73.1z"/>
	<path class="st1" d="M128.2,74.5V70c0-0.6-0.1-1-0.3-1.2c-0.2-0.2-0.5-0.3-1-0.3c-1,0-1.5,0.6-1.5,1.7v4.3h-2v-7.4h1.9v1.1
		c0.2-0.4,0.5-0.7,0.9-1c0.4-0.2,0.9-0.3,1.5-0.3c0.4,0,0.7,0.1,1,0.2c0.3,0.1,0.6,0.3,0.8,0.5c0.2,0.2,0.4,0.5,0.5,0.8
		c0.1,0.3,0.2,0.7,0.2,1.1v5.2H128.2z"/>
	<path class="st1" d="M132.8,71.3c0,0.6,0.2,1,0.5,1.3c0.3,0.3,0.7,0.5,1.2,0.5c0.3,0,0.6-0.1,0.9-0.2c0.2-0.1,0.4-0.3,0.5-0.6h2
		c-0.2,0.8-0.6,1.4-1.2,1.8s-1.3,0.6-2.1,0.6c-2.5,0-3.7-1.3-3.7-4c0-0.6,0.1-1.1,0.2-1.6c0.2-0.5,0.4-0.9,0.7-1.2
		c0.3-0.3,0.7-0.6,1.1-0.8c0.4-0.2,1-0.3,1.5-0.3c1.1,0,2,0.4,2.6,1.1c0.6,0.7,0.9,1.8,0.9,3.3H132.8z M135.9,70.1
		c0-0.3-0.1-0.5-0.1-0.7c-0.1-0.2-0.2-0.4-0.3-0.5c-0.1-0.1-0.3-0.2-0.5-0.3c-0.2-0.1-0.4-0.1-0.6-0.1c-0.4,0-0.7,0.1-1,0.4
		c-0.3,0.3-0.5,0.7-0.5,1.2H135.9z"/>
	<path class="st1" d="M143,69.3c-0.1-0.3-0.2-0.6-0.4-0.7c-0.2-0.2-0.5-0.2-0.9-0.2c-0.4,0-0.7,0-0.9,0.1c-0.2,0.1-0.3,0.3-0.3,0.5
		c0,0.2,0.1,0.4,0.3,0.5c0.2,0.1,0.5,0.2,0.9,0.3c0.6,0.2,1.2,0.3,1.6,0.5c0.4,0.1,0.8,0.3,1.1,0.4c0.3,0.2,0.5,0.4,0.6,0.6
		c0.1,0.3,0.2,0.6,0.2,1c0,0.7-0.3,1.2-0.8,1.7c-0.6,0.4-1.4,0.7-2.5,0.7c-0.5,0-1-0.1-1.5-0.2c-0.4-0.1-0.8-0.3-1.1-0.5
		c-0.3-0.2-0.5-0.5-0.7-0.8c-0.2-0.3-0.3-0.7-0.3-1.1h2c0,0.4,0.1,0.6,0.4,0.8c0.3,0.2,0.6,0.3,1.1,0.3c0.4,0,0.7-0.1,1-0.2
		c0.3-0.1,0.4-0.3,0.4-0.5c0-0.3-0.1-0.5-0.3-0.6c-0.2-0.1-0.5-0.2-0.9-0.3c-0.7-0.2-1.3-0.3-1.8-0.5c-0.4-0.2-0.8-0.4-1-0.6
		c-0.2-0.2-0.4-0.4-0.5-0.7c-0.1-0.3-0.1-0.5-0.1-0.8c0-0.3,0.1-0.5,0.2-0.8c0.1-0.3,0.3-0.5,0.6-0.7c0.3-0.2,0.6-0.3,1-0.5
		c0.4-0.1,0.9-0.2,1.5-0.2c1.1,0,1.8,0.2,2.3,0.6c0.5,0.4,0.8,1,0.8,1.8H143z"/>
	<path class="st1" d="M152,74.5v-8.3h-3v-1.8h8.2v1.8h-3v8.3H152z"/>
	<path class="st1" d="M157.5,74.5v-10h2.1v10H157.5z"/>
</g>
</svg>
